<svg width="161" height="37" viewBox="0 0 161 37" fill="none" xmlns="http://www.w3.org/2000/svg" id="svg149659549_4055">
<path d="M61.5594 22.7495V28.6696L43.3082 28.6874L43.2727 8.32373H49.1671V22.7673L61.5594 22.7495Z" fill="white"></path>
<path d="M84.5508 22.731V28.6511L64.2401 28.6867L64.2046 8.30519L84.4975 8.26953V14.1896L70.0989 14.2075V15.527L84.5153 15.5092V21.4239L70.0989 21.4417V22.7613L84.5508 22.731Z" fill="white"></path>
<path d="M113.348 8.26074L113.366 28.6423H107.471V20.0296L102.855 28.7136H97.6712L93.0197 20.0474V28.6779H87.1431V8.29641H93.428L100.263 21.0674L107.063 8.28214L113.348 8.26074Z" fill="white"></path>
<path d="M137.213 18.4548C137.213 18.4607 137.213 18.4667 137.213 18.4726C137.213 24.0582 132.637 28.6545 127.075 28.6545H125.247C125.238 28.6545 125.229 28.6545 125.22 28.6545C119.654 28.6545 115.074 24.0543 115.074 18.4637C115.074 12.8833 119.637 8.28757 125.194 8.27295H127.04C127.051 8.27295 127.061 8.27295 127.072 8.27295C132.634 8.27295 137.211 12.8685 137.213 18.4548ZM131.336 18.4548C131.33 16.1096 129.411 14.182 127.075 14.1752H125.247C122.909 14.1752 120.986 16.1071 120.986 18.4548C120.986 20.8025 122.909 22.7344 125.247 22.7344H127.058C129.399 22.7355 131.328 20.8059 131.336 18.4548Z" fill="white"></path>
<path d="M161 28.666H154.307L144.719 16.7366L144.737 28.6838H138.843L138.807 8.30225H145.501L155.088 20.2673L155.052 8.30225H160.947L161 28.666Z" fill="white"></path>
<path d="M18.3997 0C8.30602 0 0 8.34229 0 18.4801C0 28.6178 8.30602 36.9601 18.3997 36.9601C28.4934 36.9601 36.7994 28.6178 36.7994 18.4801C36.7906 8.34555 28.4902 0.00883324 18.3997 0ZM28.0509 19.3401C27.9338 19.4394 27.8007 19.518 27.6574 19.5726C27.4943 19.6405 27.3232 19.6874 27.1483 19.7121C26.7488 19.7741 26.3417 19.7662 25.9448 19.6888C25.0428 19.5008 24.1809 19.1546 23.3989 18.666C22.5823 18.1586 21.8151 17.5747 21.1076 16.9226C20.7681 16.5972 20.4209 16.2485 20.0661 15.8766C19.7421 15.5279 19.3949 15.1327 19.094 14.7376C18.97 14.5707 18.7346 14.5295 18.5617 14.6446C18.3745 14.7617 18.3125 15.0105 18.4229 15.2025C18.7006 15.6441 19.0015 16.0625 19.3023 16.481C19.6032 16.8994 19.9504 17.2945 20.2975 17.6897C20.9949 18.4796 21.7704 19.196 22.612 19.8283C23.4898 20.4917 24.4769 20.9954 25.5282 21.316C25.8857 21.4101 26.2491 21.4801 26.6159 21.5252C26.7585 21.5315 26.8726 21.6512 26.8726 21.7946C26.8726 21.8055 26.8719 21.8165 26.8705 21.8274C26.8698 21.8704 26.8532 21.9118 26.8242 21.9436C26.219 22.9687 25.4881 23.9137 24.6487 24.7563C22.0797 27.3365 18.7932 28.7545 15.8076 28.7545C14.5594 28.7754 13.3232 28.5049 12.197 27.9642L11.9425 27.8479C11.8559 27.8012 11.7513 27.8012 11.6647 27.8479L11.4333 28.0107C11.0558 28.2629 10.6137 28.4 10.1603 28.4058C9.78032 28.4274 9.40885 28.2833 9.142 28.0107C8.65597 27.5225 8.63282 26.5927 9.11885 25.7791L9.25772 25.5234C9.30424 25.4365 9.30424 25.3314 9.25772 25.2445L9.11885 24.9888C7.84592 22.5712 7.93849 19.3866 9.23457 16.4345C9.27924 16.334 9.37876 16.2692 9.48823 16.2692C9.52851 16.2692 9.56831 16.278 9.60488 16.295C9.67131 16.3152 9.72361 16.3678 9.74375 16.4345C10.0076 17.077 10.333 17.692 10.7158 18.2709C11.296 19.156 11.9712 19.9745 12.7294 20.7116C13.093 21.0842 13.4795 21.4336 13.8866 21.7577C14.28 22.0831 14.6966 22.4085 15.1132 22.7107C15.1827 22.7649 15.2683 22.7944 15.3562 22.7944C15.5733 22.7944 15.752 22.6149 15.752 22.3969C15.752 22.2744 15.6955 22.1584 15.5993 22.0831C15.2289 21.7577 14.8586 21.409 14.5115 21.0603C14.1643 20.7116 13.8403 20.3397 13.5163 19.9678C12.9006 19.2241 12.3579 18.4222 11.8962 17.5735C11.4534 16.7662 11.163 15.8833 11.0398 14.97C10.9704 14.5702 10.9704 14.1611 11.0398 13.7613C11.0836 13.6027 11.1375 13.4474 11.2018 13.2963L11.2944 13.1569C11.562 12.8307 11.8478 12.5202 12.1508 12.2271C15.9233 8.41482 21.177 7.15957 24.8801 9.15867L25.1578 9.29814C25.2444 9.34487 25.349 9.34487 25.4356 9.29814L25.6902 9.13543C26.5465 8.57754 27.5186 8.55429 28.0509 9.08894C28.5832 9.62358 28.5601 10.6464 27.9583 11.5297L27.7732 11.7622C27.7202 11.8456 27.7114 11.95 27.75 12.0411L27.8889 12.32C28.8378 14.3424 28.8841 16.8529 28.0509 19.3401Z" fill="white"></path>
</svg>